<svg xmlns="http://www.w3.org/2000/svg" width="3334" height="3334" viewBox="0 0 3334 3334" version="1.1"><path d="M 3050 83.094 C 3047.525 83.599, 3039.200 84.705, 3031.500 85.550 C 3023.800 86.396, 3011.650 87.715, 3004.500 88.482 C 2997.350 89.248, 2984.975 90.602, 2977 91.491 C 2969.025 92.380, 2956.537 93.754, 2949.249 94.545 C 2941.961 95.335, 2930.036 96.633, 2922.749 97.429 C 2915.462 98.224, 2902.975 99.602, 2895 100.491 C 2887.025 101.380, 2874.650 102.738, 2867.500 103.509 C 2860.350 104.281, 2848.200 105.626, 2840.500 106.499 C 2832.800 107.371, 2820.200 108.744, 2812.500 109.548 C 2804.800 110.352, 2792.650 111.682, 2785.500 112.504 C 2778.350 113.325, 2769.688 114.288, 2766.250 114.643 C 2762.813 114.998, 2760 115.677, 2760 116.151 C 2760 116.625, 2761.012 117.879, 2762.250 118.937 C 2763.488 119.996, 2814.450 161.739, 2875.500 211.700 C 2936.550 261.661, 3009.170 321.115, 3036.879 343.819 L 3087.258 385.099 3091.879 384.800 C 3096.119 384.525, 3096.485 384.294, 3096.318 382 C 3096.218 380.625, 3095.424 372.750, 3094.554 364.500 C 3093.684 356.250, 3092.309 343.650, 3091.499 336.500 C 3090.689 329.350, 3089.349 317.200, 3088.521 309.500 C 3087.693 301.800, 3086.313 289.200, 3085.455 281.500 C 3084.596 273.800, 3083.236 261.425, 3082.431 254 C 3081.626 246.575, 3080.316 234.650, 3079.519 227.500 C 3078.722 220.350, 3077.360 207.975, 3076.492 200 C 3075.624 192.025, 3074.262 179.537, 3073.466 172.249 C 3072.669 164.961, 3071.328 152.811, 3070.486 145.249 C 3069.643 137.687, 3068.280 125.200, 3067.456 117.500 C 3066.632 109.800, 3065.405 98.775, 3064.729 93 L 3063.500 82.500 3059 82.337 C 3056.525 82.247, 3052.475 82.588, 3050 83.094 M 2446.886 149.447 C 2446.641 149.693, 2439.928 150.577, 2431.970 151.412 C 2424.011 152.246, 2410.975 153.640, 2403 154.508 C 2395.025 155.376, 2382.650 156.722, 2375.500 157.499 C 2368.350 158.276, 2356.200 159.630, 2348.500 160.508 C 2340.800 161.386, 2328.425 162.740, 2321 163.518 C 2313.575 164.296, 2301.425 165.622, 2294 166.465 C 2286.575 167.308, 2274.200 168.670, 2266.500 169.491 C 2258.800 170.312, 2246.200 171.687, 2238.500 172.545 C 2230.800 173.404, 2218.650 174.742, 2211.500 175.519 C 2204.350 176.296, 2192.425 177.607, 2185 178.431 C 2177.575 179.256, 2164.975 180.640, 2157 181.508 C 2149.025 182.376, 2136.537 183.738, 2129.249 184.534 C 2121.961 185.331, 2109.811 186.672, 2102.249 187.515 C 2094.687 188.358, 2082.425 189.697, 2075 190.490 C 2067.575 191.283, 2055.425 192.623, 2048 193.467 C 2040.575 194.311, 2031.897 195.292, 2028.715 195.647 C 2025.192 196.040, 2023.068 196.724, 2023.281 197.396 C 2023.474 198.003, 2036.427 208.784, 2052.066 221.354 C 2067.705 233.924, 2107.050 265.471, 2139.500 291.459 C 2171.950 317.446, 2234.034 367.190, 2277.465 402.001 C 2344.091 455.402, 2356.905 465.281, 2359.465 465.220 C 2361.134 465.181, 2456.100 454.911, 2570.500 442.398 C 2684.900 429.885, 2778.876 419.329, 2779.335 418.939 C 2779.794 418.549, 2760.219 401.852, 2735.835 381.835 C 2711.451 361.818, 2676.200 332.882, 2657.500 317.533 C 2638.800 302.183, 2618.100 285.179, 2611.500 279.746 C 2604.900 274.313, 2595.450 266.542, 2590.500 262.476 C 2585.550 258.411, 2569.350 245.114, 2554.500 232.927 C 2539.650 220.740, 2524.575 208.368, 2521 205.433 C 2517.425 202.498, 2500.550 188.613, 2483.500 174.578 C 2460.973 156.035, 2451.794 149.052, 2449.917 149.030 C 2448.496 149.014, 2447.132 149.201, 2446.886 149.447 M 1653.859 236.475 C 1653.636 236.697, 1646.715 237.605, 1638.477 238.492 C 1630.240 239.379, 1617.425 240.767, 1610 241.576 C 1602.575 242.386, 1590.425 243.697, 1583 244.490 C 1575.575 245.283, 1563.200 246.646, 1555.500 247.519 C 1547.800 248.392, 1535.537 249.753, 1528.249 250.544 C 1520.961 251.335, 1508.811 252.672, 1501.249 253.515 C 1493.687 254.358, 1481.425 255.701, 1474 256.500 C 1466.575 257.299, 1454.313 258.638, 1446.750 259.476 C 1439.188 260.314, 1427.037 261.652, 1419.750 262.448 C 1412.463 263.244, 1400.088 264.594, 1392.250 265.448 C 1384.412 266.302, 1371.813 267.671, 1364.250 268.492 C 1356.688 269.313, 1344.650 270.639, 1337.500 271.438 C 1330.350 272.238, 1317.975 273.616, 1310 274.500 C 1302.025 275.384, 1289.537 276.754, 1282.249 277.545 C 1274.961 278.335, 1263.036 279.645, 1255.749 280.454 C 1248.462 281.264, 1238.450 282.385, 1233.500 282.945 C 1228.550 283.506, 1223.455 283.972, 1222.177 283.982 C 1220.688 283.994, 1219.970 284.511, 1220.177 285.423 C 1220.355 286.205, 1225.450 290.828, 1231.500 295.696 C 1237.550 300.564, 1269.725 326.383, 1303 353.073 C 1336.275 379.762, 1387.575 420.903, 1417 444.497 C 1446.425 468.091, 1488.725 501.998, 1511 519.847 C 1533.275 537.696, 1551.984 552.672, 1552.576 553.127 C 1553.168 553.584, 1651.732 543.190, 1771.980 529.991 C 1892.060 516.810, 1990.437 505.897, 1990.594 505.739 C 1990.752 505.581, 1988.321 503.392, 1985.191 500.875 C 1982.061 498.358, 1961.950 482.204, 1940.500 464.977 C 1919.050 447.751, 1878.775 415.420, 1851 393.132 C 1823.225 370.844, 1794.875 348.058, 1788 342.496 C 1781.125 336.935, 1754.800 315.783, 1729.500 295.492 C 1704.200 275.200, 1677.807 254.003, 1670.849 248.387 C 1663.891 242.771, 1657.312 237.702, 1656.230 237.123 C 1655.148 236.544, 1654.081 236.252, 1653.859 236.475 M 894.500 320.052 C 891.200 320.480, 881.750 321.541, 873.500 322.408 C 865.250 323.276, 852.425 324.676, 845 325.519 C 837.575 326.362, 825.650 327.692, 818.500 328.474 C 811.350 329.256, 798.975 330.606, 791 331.474 C 783.025 332.342, 770.425 333.726, 763 334.550 C 755.575 335.374, 743.425 336.701, 736 337.500 C 728.575 338.299, 716.425 339.626, 709 340.450 C 701.575 341.274, 689.200 342.624, 681.500 343.450 C 673.800 344.276, 661.425 345.643, 654 346.488 C 646.575 347.333, 634.200 348.695, 626.500 349.514 C 618.800 350.333, 609.350 351.340, 605.500 351.751 L 598.500 352.500 598.586 362 C 598.634 367.225, 599.410 377.575, 600.310 385 C 601.211 392.425, 602.631 404.800, 603.466 412.500 C 604.301 420.200, 605.678 432.575, 606.525 440 C 607.372 447.425, 608.722 459.800, 609.525 467.500 C 610.328 475.200, 611.674 487.575, 612.518 495 C 613.361 502.425, 614.715 514.835, 615.526 522.578 L 617 536.655 327.561 1473.229 C 168.369 1988.345, 37.384 2413.335, 36.483 2417.652 C 35.582 2421.968, 34.610 2430.450, 34.324 2436.500 C 33.971 2443.962, 34.313 2450.822, 35.388 2457.831 C 36.259 2463.513, 38.578 2472.963, 40.541 2478.831 C 42.505 2484.699, 46.098 2493.145, 48.526 2497.600 C 50.955 2502.055, 55.041 2508.580, 57.608 2512.100 C 60.174 2515.620, 66.004 2522.164, 70.562 2526.643 C 75.120 2531.122, 82.371 2537.113, 86.675 2539.956 C 90.979 2542.799, 98.135 2546.873, 102.577 2549.009 C 108.220 2551.722, 426.690 2650.560, 1159.175 2876.929 C 1735.861 3055.149, 2211.476 3201.852, 2216.097 3202.936 C 2220.719 3204.020, 2228.550 3205.438, 2233.500 3206.086 C 2239.172 3206.830, 2248.602 3207.049, 2259 3206.680 C 2269.756 3206.298, 2278.869 3205.379, 2285.177 3204.041 C 2290.500 3202.912, 2299.050 3200.620, 2304.177 3198.947 C 2309.305 3197.274, 2318.212 3193.656, 2323.972 3190.908 C 2329.732 3188.159, 2338.733 3183.055, 2343.976 3179.565 C 2349.219 3176.075, 2357.332 3169.874, 2362.004 3165.785 C 2366.677 3161.696, 2373.711 3154.560, 2377.635 3149.926 C 2381.559 3145.292, 2387.286 3137.734, 2390.362 3133.132 C 2393.437 3128.529, 2398.172 3120.204, 2400.884 3114.632 C 2403.596 3109.059, 2407.432 3099.550, 2409.409 3093.500 C 2411.386 3087.450, 2544.828 2655.912, 2705.945 2134.527 C 2867.063 1613.141, 2998.741 1186.408, 2998.563 1186.230 C 2998.385 1186.052, 2996.273 1186.987, 2993.870 1188.308 C 2991.466 1189.630, 2983.875 1193.641, 2977 1197.223 C 2970.125 1200.805, 2955.275 1208.575, 2944 1214.489 C 2932.725 1220.402, 2919 1227.613, 2913.500 1230.512 C 2908 1233.411, 2893.825 1240.836, 2882 1247.012 C 2870.175 1253.187, 2855.775 1260.718, 2850 1263.747 C 2844.225 1266.776, 2835.900 1271.161, 2831.500 1273.490 C 2827.100 1275.820, 2818.100 1280.546, 2811.500 1283.992 C 2804.900 1287.438, 2794.775 1292.736, 2789 1295.765 C 2783.225 1298.793, 2774.450 1303.398, 2769.500 1305.998 C 2764.550 1308.598, 2754.650 1313.772, 2747.500 1317.496 C 2740.350 1321.221, 2731.350 1325.951, 2727.500 1328.008 C 2723.650 1330.065, 2714.200 1335.017, 2706.500 1339.011 C 2698.800 1343.006, 2689.800 1347.735, 2686.500 1349.519 C 2683.200 1351.304, 2674.425 1355.921, 2667 1359.780 C 2659.575 1363.638, 2646.102 1370.678, 2637.061 1375.422 L 2620.622 1384.050 2613.561 1381.943 C 2609.677 1380.785, 2602.450 1378.551, 2597.500 1376.978 C 2592.550 1375.406, 2585.350 1373.147, 2581.500 1371.958 C 2577.650 1370.770, 2572.475 1369.212, 2570 1368.497 C 2567.525 1367.782, 2561 1365.758, 2555.500 1364 C 2550 1362.242, 2543.475 1360.227, 2541 1359.524 C 2538.525 1358.820, 2529.750 1356.113, 2521.500 1353.508 C 2513.250 1350.904, 2504.475 1348.193, 2502 1347.485 C 2499.525 1346.776, 2493 1344.758, 2487.500 1343 C 2482 1341.242, 2475.475 1339.214, 2473 1338.493 C 2470.525 1337.773, 2461.750 1335.078, 2453.500 1332.504 C 2445.250 1329.930, 2435.800 1327.015, 2432.500 1326.026 C 2429.200 1325.038, 2420.650 1322.400, 2413.500 1320.165 C 2406.350 1317.930, 2393.975 1314.085, 2386 1311.621 C 2378.025 1309.157, 2362.527 1304.399, 2351.560 1301.047 C 2340.593 1297.696, 2331.506 1294.839, 2331.366 1294.700 C 2331.227 1294.560, 2337.274 1291.194, 2344.806 1287.221 C 2352.338 1283.247, 2362.550 1277.842, 2367.500 1275.209 C 2372.450 1272.577, 2381.900 1267.564, 2388.500 1264.070 C 2395.100 1260.576, 2404.325 1255.696, 2409 1253.225 C 2413.675 1250.754, 2420.650 1247.048, 2424.500 1244.990 C 2428.350 1242.932, 2434.875 1239.457, 2439 1237.269 C 2443.125 1235.082, 2451.900 1230.461, 2458.500 1227.002 C 2465.100 1223.542, 2472.750 1219.494, 2475.500 1218.005 C 2478.250 1216.516, 2484.325 1213.261, 2489 1210.771 C 2493.675 1208.282, 2502 1203.884, 2507.500 1200.998 C 2513 1198.112, 2524.925 1191.793, 2534 1186.956 C 2543.075 1182.119, 2555.921 1175.312, 2562.548 1171.831 C 2569.174 1168.349, 2605.961 1148.883, 2644.298 1128.572 C 2683.667 1107.715, 2714 1091.060, 2714 1090.301 C 2714 1089.562, 2712.988 1088.514, 2711.750 1087.972 C 2710.512 1087.430, 2619.050 1059.072, 2508.500 1024.953 C 2397.950 990.834, 2306.984 962.744, 2306.353 962.530 C 2305.722 962.317, 2303.697 962.936, 2301.853 963.907 C 2300.009 964.877, 2288.150 970.978, 2275.500 977.464 C 2262.850 983.951, 2250.250 990.491, 2247.500 991.998 C 2244.750 993.505, 2232.150 1000.034, 2219.500 1006.507 C 2206.850 1012.980, 2192.900 1020.176, 2188.500 1022.498 C 2184.100 1024.820, 2170.600 1031.795, 2158.500 1037.998 C 2146.400 1044.200, 2131.550 1051.853, 2125.500 1055.003 C 2119.450 1058.154, 2107.750 1064.225, 2099.500 1068.494 C 2091.250 1072.763, 2078.200 1079.516, 2070.500 1083.501 C 2062.800 1087.486, 2049.300 1094.459, 2040.500 1098.996 C 2031.700 1103.533, 2018.650 1110.281, 2011.500 1113.993 C 2004.350 1117.705, 1991.075 1124.567, 1982 1129.242 C 1972.925 1133.917, 1957.400 1141.912, 1947.500 1147.009 C 1937.600 1152.107, 1925.715 1158.294, 1921.090 1160.758 L 1912.680 1165.240 1907.590 1163.743 C 1904.790 1162.919, 1893.500 1159.459, 1882.500 1156.053 C 1871.500 1152.646, 1855.975 1147.843, 1848 1145.379 C 1840.025 1142.915, 1827.650 1139.070, 1820.500 1136.835 C 1813.350 1134.600, 1804.800 1131.962, 1801.500 1130.974 C 1798.200 1129.985, 1788.750 1127.077, 1780.500 1124.512 C 1772.250 1121.947, 1759.650 1118.031, 1752.500 1115.810 C 1745.350 1113.588, 1736.800 1110.968, 1733.500 1109.987 C 1730.200 1109.006, 1720.750 1106.078, 1712.500 1103.480 C 1704.250 1100.881, 1695.475 1098.180, 1693 1097.476 C 1690.525 1096.773, 1684 1094.770, 1678.500 1093.027 C 1673 1091.283, 1660.400 1087.351, 1650.500 1084.289 C 1640.600 1081.226, 1629.800 1077.922, 1626.500 1076.947 C 1623.200 1075.971, 1616 1073.747, 1610.500 1072.004 C 1605 1070.262, 1593.975 1066.805, 1586 1064.322 C 1578.025 1061.838, 1570.263 1059.574, 1568.750 1059.290 C 1567.237 1059.006, 1566.001 1058.487, 1566.002 1058.137 C 1566.003 1057.786, 1573.766 1053.569, 1583.252 1048.763 C 1592.738 1043.958, 1608.669 1035.802, 1618.653 1030.640 C 1628.637 1025.477, 1645.737 1016.635, 1656.653 1010.992 C 1667.569 1005.348, 1683.475 997.136, 1692 992.741 C 1700.525 988.346, 1714.250 981.264, 1722.500 977.003 C 1730.750 972.742, 1744.475 965.658, 1753 961.262 C 1761.525 956.866, 1776.600 949.098, 1786.500 944.001 C 1796.400 938.903, 1809 932.379, 1814.500 929.502 C 1820 926.625, 1837.100 917.841, 1852.500 909.983 C 1867.900 902.125, 1880.950 895.375, 1881.500 894.983 C 1882.050 894.591, 1895.100 887.830, 1910.500 879.959 C 1925.900 872.088, 1942.100 863.736, 1946.500 861.400 C 1950.900 859.064, 1954.635 856.500, 1954.799 855.702 C 1954.964 854.904, 1954.289 853.934, 1953.299 853.546 C 1952.310 853.159, 1857.727 823.852, 1743.116 788.421 C 1628.505 752.989, 1534.067 724, 1533.253 724 C 1532.439 724, 1522.037 729.008, 1510.137 735.129 C 1498.237 741.250, 1485.350 747.940, 1481.500 749.995 C 1477.650 752.051, 1465.950 758.129, 1455.500 763.502 C 1445.050 768.876, 1429.975 776.647, 1422 780.772 C 1414.025 784.897, 1401.650 791.303, 1394.500 795.007 C 1387.350 798.711, 1373.850 805.684, 1364.500 810.503 C 1355.150 815.321, 1341.200 822.522, 1333.500 826.505 C 1325.800 830.487, 1313.425 836.893, 1306 840.739 C 1298.575 844.585, 1285.525 851.337, 1277 855.744 C 1268.475 860.151, 1248.225 870.616, 1232 879 C 1215.775 887.384, 1196.200 897.504, 1188.500 901.489 C 1180.800 905.474, 1167.016 912.619, 1157.869 917.367 C 1148.721 922.115, 1140.305 926, 1139.166 926 C 1138.026 926, 1136.060 925.586, 1134.797 925.080 C 1133.534 924.575, 1130.250 923.497, 1127.500 922.687 C 1124.750 921.876, 1118.225 919.869, 1113 918.226 C 1107.775 916.584, 1098.775 913.799, 1093 912.039 C 1087.225 910.278, 1077.325 907.242, 1071 905.293 C 1064.675 903.344, 1055.225 900.408, 1050 898.768 C 1044.775 897.129, 1038.475 895.175, 1036 894.427 C 1033.525 893.679, 1027.225 891.733, 1022 890.104 C 1016.775 888.474, 1007.775 885.705, 1002 883.950 C 996.225 882.196, 987.450 879.499, 982.500 877.957 C 977.550 876.415, 966.750 873.052, 958.500 870.484 C 950.250 867.915, 941.475 865.195, 939 864.440 C 936.525 863.685, 930 861.671, 924.500 859.964 C 919 858.258, 913.375 856.480, 912 856.014 C 910.625 855.547, 904.775 853.747, 899 852.013 C 893.225 850.278, 884.450 847.598, 879.500 846.055 C 874.550 844.513, 865.160 841.582, 858.632 839.543 C 852.105 837.504, 847.155 835.485, 847.632 835.058 C 848.110 834.630, 861.100 827.861, 876.500 820.016 C 891.900 812.170, 907.650 804.068, 911.500 802.010 C 915.350 799.951, 928.400 793.197, 940.500 786.999 C 952.600 780.802, 967.900 772.927, 974.500 769.499 C 981.100 766.072, 994.825 758.988, 1005 753.758 C 1015.175 748.527, 1031.600 740.083, 1041.500 734.993 C 1051.400 729.904, 1066.925 721.917, 1076 717.246 C 1085.075 712.574, 1098.350 705.716, 1105.500 702.006 C 1112.650 698.295, 1127.950 690.415, 1139.500 684.493 C 1151.050 678.572, 1164.100 671.833, 1168.500 669.518 C 1172.900 667.203, 1189.906 658.415, 1206.291 649.989 C 1228.152 638.747, 1236.002 634.249, 1235.779 633.093 C 1235.559 631.947, 1221.791 627.296, 1185.205 616.009 C 1142.505 602.836, 1135.428 600.392, 1138.217 599.781 C 1140.023 599.385, 1162.650 596.797, 1188.500 594.029 C 1214.350 591.261, 1237.031 588.739, 1238.903 588.424 L 1242.306 587.852 1239.903 585.556 C 1238.581 584.293, 1222.650 571.367, 1204.500 556.831 C 1186.350 542.295, 1149.675 512.897, 1123 491.502 C 1096.325 470.108, 1059.875 440.858, 1042 426.503 C 1024.125 412.147, 986.680 382.086, 958.789 359.701 C 911.116 321.438, 907.851 319.008, 904.289 319.137 C 902.205 319.212, 897.800 319.624, 894.500 320.052 M 746.660 565.980 C 743.998 566.464, 738.620 567.832, 734.709 569.020 C 730.798 570.208, 724.152 572.912, 719.939 575.030 C 715.727 577.148, 708.845 581.611, 704.647 584.947 C 700.448 588.284, 694.236 594.498, 690.841 598.757 C 687.310 603.186, 682.642 610.780, 679.936 616.500 C 677.333 622, 674.448 629.425, 673.524 633 C 672.601 636.575, 671.602 644.675, 671.305 651 C 670.906 659.511, 671.205 664.833, 672.457 671.475 C 673.388 676.412, 675.471 683.878, 677.086 688.068 C 678.702 692.257, 682.669 699.693, 685.902 704.593 C 689.135 709.492, 694.663 716.261, 698.185 719.637 C 701.708 723.012, 708.076 728.049, 712.337 730.830 C 716.597 733.611, 723.552 737.222, 727.791 738.855 C 732.031 740.488, 738.969 742.538, 743.208 743.412 C 747.447 744.285, 755.454 745, 761 745 C 766.546 745, 774.553 744.285, 778.792 743.412 C 783.031 742.538, 789.969 740.488, 794.209 738.855 C 798.448 737.222, 805.403 733.611, 809.663 730.830 C 813.924 728.049, 820.287 723.012, 823.804 719.637 C 827.322 716.261, 832.612 709.877, 835.560 705.449 C 838.508 701.020, 842.346 694.046, 844.089 689.951 C 845.832 685.855, 848.094 678.453, 849.116 673.502 C 850.138 668.551, 850.976 660.675, 850.979 656 C 850.982 651.325, 850.523 644.575, 849.959 641 C 849.395 637.425, 847.985 631.575, 846.826 628 C 845.666 624.425, 843.008 618.076, 840.918 613.890 C 838.828 609.705, 834.389 602.845, 831.053 598.647 C 827.716 594.448, 821.712 588.411, 817.710 585.231 C 813.707 582.050, 806.826 577.571, 802.417 575.278 C 798.008 572.984, 790.374 569.920, 785.451 568.469 C 778.426 566.398, 773.810 565.751, 764 565.465 C 757.125 565.265, 749.322 565.496, 746.660 565.980 M 900.251 1279.787 C 768.114 1361.579, 660.006 1428.725, 660.012 1429 C 660.017 1429.275, 806.955 1614.179, 986.541 1839.898 L 1313.061 2250.296 1230.781 2305.139 L 1148.500 2359.981 955.197 2293.104 C 848.880 2256.322, 761.617 2225.951, 761.280 2225.613 C 760.943 2225.276, 760.854 2224.849, 761.083 2224.665 C 761.312 2224.480, 819.325 2190.875, 890 2149.987 C 960.675 2109.099, 1019.731 2074.902, 1021.235 2073.993 L 1023.969 2072.340 948.418 1973.420 C 906.864 1919.014, 872.439 1874.615, 871.917 1874.755 C 871.395 1874.896, 718.088 1970.460, 531.234 2087.120 C 344.380 2203.780, 190.954 2299.740, 190.288 2300.365 C 189.371 2301.223, 311.170 2341.655, 689.245 2466 C 964.339 2556.475, 1190.012 2630.500, 1190.741 2630.500 C 1191.470 2630.500, 1298.687 2560.750, 1429.002 2475.500 C 1562.193 2388.368, 1665.759 2319.989, 1665.531 2319.332 C 1665.308 2318.690, 1518.784 2134.190, 1339.921 1909.332 C 1161.059 1684.475, 1014.335 1500.009, 1013.868 1499.409 C 1013.306 1498.687, 1040.818 1479.785, 1095.203 1443.529 L 1177.387 1388.741 1271.803 1413.402 L 1366.219 1438.064 1490.859 1361.581 C 1559.412 1319.515, 1616.304 1284.508, 1617.286 1283.786 C 1618.834 1282.649, 1587.300 1272.370, 1380.786 1206.699 C 1249.729 1165.023, 1142.050 1130.958, 1141.500 1130.999 C 1140.950 1131.040, 1032.388 1197.995, 900.251 1279.787 M 1520.416 1482.065 C 1390.112 1567.350, 1283.395 1637.438, 1283.268 1637.815 C 1283.140 1638.192, 1429.972 1823.175, 1609.561 2048.890 L 1936.086 2459.280 1853.793 2514.124 L 1771.500 2568.969 1677.630 2544.434 C 1626.001 2530.940, 1583.227 2520.035, 1582.577 2520.200 C 1581.926 2520.365, 1525.055 2555.082, 1456.197 2597.349 C 1387.339 2639.616, 1331 2674.502, 1331 2674.873 C 1331 2675.245, 1438.223 2709.665, 1569.273 2751.362 L 1807.545 2827.174 2048.234 2678.337 C 2191.465 2589.766, 2288.755 2529.011, 2288.508 2528.291 C 2288.281 2527.627, 2141.763 2343.127, 1962.914 2118.291 C 1784.064 1893.456, 1637.347 1709.009, 1636.876 1708.409 C 1636.307 1707.684, 1663.629 1688.911, 1718.191 1652.537 L 1800.364 1597.756 1815.432 1602.922 C 1823.719 1605.764, 1910.748 1635.856, 2008.829 1669.794 C 2106.909 1703.732, 2187.156 1731.950, 2187.154 1732.500 C 2187.152 1733.050, 2128.488 1767.475, 2056.790 1809 C 1985.092 1850.525, 1926.220 1884.815, 1925.965 1885.201 C 1925.709 1885.586, 1959.475 1930.409, 2001 1984.808 L 2076.500 2083.715 2082.500 2079.947 C 2085.800 2077.875, 2239.250 1982.052, 2423.500 1867.008 C 2607.750 1751.964, 2758.877 1657.474, 2759.338 1657.030 C 2759.799 1656.587, 2755.974 1654.842, 2750.838 1653.153 C 2745.702 1651.465, 2520.433 1577.389, 2250.241 1488.542 C 1980.048 1399.694, 1758.610 1327, 1758.157 1327 C 1757.703 1327, 1650.720 1396.779, 1520.416 1482.065" stroke="none" fill="#fffcfc" fill-rule="evenodd"/><path d="" stroke="none" fill="#fcfcfc" fill-rule="evenodd"/></svg>